<svg width="73" height="28" viewBox="0 0 73 28" fill="none" xmlns="http://www.w3.org/2000/svg">
<path d="M20.3489 12.4779C19.9699 12.8592 19.6797 13.3194 19.4989 13.8256C19.3181 14.3319 19.2512 14.8718 19.3029 15.4069L19.2849 15.3889C19.3381 16.0188 19.2531 16.6526 19.036 17.2463C18.8189 17.8399 18.4749 18.379 18.028 18.826C17.581 19.2729 17.0419 19.617 16.4482 19.834C15.8546 20.0511 15.2207 20.1361 14.5909 20.0829L14.6089 20.1009C13.8555 20.0308 13.0988 20.1947 12.4419 20.5704C11.7851 20.9461 11.2601 21.5152 10.9386 22.2002C10.6171 22.8852 10.5146 23.6526 10.6452 24.398C10.7759 25.1433 11.1332 25.8302 11.6685 26.365C12.2038 26.8998 12.891 27.2565 13.6364 27.3864C14.3819 27.5164 15.1492 27.4132 15.8339 27.0911C16.5186 26.7689 17.0872 26.2435 17.4623 25.5863C17.8374 24.9291 18.0007 24.1723 17.9299 23.4189L17.9489 23.4369C17.8957 22.8071 17.9806 22.1732 18.1977 21.5795C18.4148 20.9859 18.7589 20.4468 19.2058 19.9998C19.6528 19.5529 20.1919 19.2088 20.7855 18.9918C21.3792 18.7747 22.013 18.6897 22.6429 18.7429L22.6239 18.7249C23.2393 18.7802 23.8588 18.6793 24.4249 18.4315C24.9909 18.1837 25.4853 17.797 25.8621 17.3073C26.2389 16.8176 26.4861 16.2406 26.5805 15.63C26.675 15.0193 26.6138 14.3947 26.4026 13.8139C26.1914 13.2332 25.837 12.7152 25.3723 12.3079C24.9076 11.9006 24.3476 11.6172 23.7442 11.484C23.1408 11.3508 22.5135 11.372 21.9205 11.5457C21.3275 11.7195 20.788 12.0401 20.3519 12.4779H20.3489Z" fill="white"/>
<path d="M12.9718 17.7429L12.9528 17.7249C13.4881 17.7788 14.0287 17.7131 14.5356 17.5325C15.0424 17.3519 15.5028 17.061 15.8834 16.6807C16.2639 16.3004 16.5553 15.8402 16.7362 15.3335C16.9172 14.8268 16.9833 14.2863 16.9298 13.7509L16.9488 13.7689C16.8956 13.139 16.9806 12.5052 17.1976 11.9115C17.4147 11.3179 17.7588 10.7788 18.2057 10.3318C18.6527 9.88493 19.1918 9.54083 19.7854 9.32383C20.3791 9.10669 21.0129 9.02176 21.6428 9.07493L21.6238 9.05693C22.3773 9.12773 23.1342 8.96429 23.7914 8.58903C24.4487 8.21377 24.9741 7.6449 25.2961 6.96003C25.6181 6.27517 25.721 5.50764 25.5908 4.76213C25.4606 4.01662 25.1036 3.32944 24.5684 2.7943C24.0333 2.25917 23.3461 1.90213 22.6006 1.77191C21.8551 1.64168 21.0876 1.74459 20.4027 2.06661C19.7178 2.38862 19.149 2.91407 18.7737 3.57128C18.3984 4.22848 18.235 4.98545 18.3058 5.73893L18.2878 5.71993C18.3411 6.34982 18.2563 6.98376 18.0393 7.57748C17.8223 8.1712 17.4782 8.71039 17.0313 9.15743C16.5843 9.60433 16.0451 9.94843 15.4514 10.1654C14.8576 10.3824 14.2237 10.4672 13.5938 10.4139L13.6118 10.4329C13.0765 10.379 12.5358 10.4447 12.029 10.6253C11.5222 10.8058 11.0618 11.0968 10.6812 11.4771C10.3006 11.8574 10.0093 12.3176 9.82834 12.8243C9.64744 13.331 9.58134 13.8715 9.63484 14.4069L9.61684 14.3889C9.66984 15.0187 9.58474 15.6525 9.36764 16.2461C9.15044 16.8396 8.80644 17.3787 8.35954 17.8256C7.9126 18.2725 7.37356 18.6165 6.78 18.8337C6.18644 19.0508 5.55265 19.1359 4.92284 19.0829L4.94084 19.1009C4.18736 19.0301 3.43039 19.1935 2.77318 19.5688C2.11598 19.9441 1.59053 20.5129 1.26852 21.1978C0.946502 21.8827 0.843582 22.6502 0.973812 23.3957C1.10404 24.1412 1.46108 24.8284 1.99621 25.3635C2.53135 25.8987 3.21853 26.2557 3.96404 26.3859C4.70955 26.5161 5.47708 26.4132 6.16195 26.0912C6.84681 25.7692 7.41568 25.2438 7.79094 24.5866C8.16624 23.9293 8.32964 23.1724 8.25884 22.4189L8.27784 22.4369C8.22464 21.807 8.30964 21.1732 8.52674 20.5795C8.74374 19.9859 9.08784 19.4468 9.53474 18.9998C9.98174 18.5529 10.5208 18.2088 11.1144 17.9918C11.7081 17.7747 12.3419 17.6897 12.9718 17.7429Z" fill="white"/>
<path d="M6.2699 15.7359C6.64892 15.3547 6.9391 14.8945 7.11974 14.3882C7.30038 13.8819 7.36702 13.3419 7.3149 12.8069L7.33389 12.8249C7.28069 12.1949 7.36565 11.5608 7.58286 10.967C7.80007 10.3732 8.1443 9.83397 8.5915 9.38697C9.0387 8.93999 9.578 8.596 10.1719 8.37905C10.7658 8.16209 11.3999 8.07739 12.0299 8.13087L12.0109 8.11287C12.7641 8.18344 13.5208 8.01995 14.1777 7.64471C14.8346 7.26948 15.3597 6.70075 15.6816 6.0161C16.0034 5.33144 16.1062 4.56419 15.976 3.81896C15.8458 3.07373 15.4888 2.38681 14.9539 1.85187C14.419 1.31693 13.732 0.960013 12.9868 0.829793C12.2416 0.699563 11.4743 0.802383 10.7897 1.1242C10.105 1.44602 9.5363 1.97119 9.1611 2.62809C8.7858 3.28499 8.6223 4.04165 8.6929 4.79487L8.6749 4.77687C8.7281 5.40672 8.6431 6.04059 8.426 6.63423C8.2089 7.22787 7.86492 7.76698 7.41796 8.21394C6.97101 8.6609 6.43189 9.00493 5.83825 9.22197C5.24461 9.43907 4.61075 9.52407 3.9809 9.47087L3.9989 9.48887C3.38347 9.43367 2.76406 9.53477 2.19808 9.78267C1.6321 10.0306 1.13785 10.4174 0.761139 10.9072C0.384429 11.3969 0.137449 11.9739 0.0430689 12.5845C-0.0513011 13.1952 0.0099889 13.8198 0.221259 14.4004C0.432529 14.9811 0.786959 15.499 1.25169 15.9062C1.71642 16.3135 2.27642 16.5968 2.8798 16.73C3.48317 16.8631 4.1104 16.8418 4.70337 16.6681C5.29633 16.4943 5.83583 16.1737 6.27189 15.7359H6.2699Z" fill="white"/>
<path d="M39.0837 18.2079V21.1079H37.3437C36.1037 21.1079 35.137 20.8079 34.4437 20.2079C33.7503 19.5946 33.4037 18.6012 33.4037 17.2279V12.7879H32.0437V9.94791H33.4037V7.22791H36.8237V9.94791H39.0637V12.7879H36.8237V17.2679C36.8237 17.6012 36.9037 17.8412 37.0637 17.9879C37.2237 18.1346 37.4903 18.2079 37.8637 18.2079H39.0837ZM42.7087 8.78791C42.1087 8.78791 41.6153 8.61458 41.2287 8.26791C40.8553 7.90791 40.6687 7.46791 40.6687 6.94791C40.6687 6.41458 40.8553 5.97458 41.2287 5.62791C41.6153 5.26791 42.1087 5.08791 42.7087 5.08791C43.2953 5.08791 43.7753 5.26791 44.1487 5.62791C44.5353 5.97458 44.7287 6.41458 44.7287 6.94791C44.7287 7.46791 44.5353 7.90791 44.1487 8.26791C43.7753 8.61458 43.2953 8.78791 42.7087 8.78791ZM44.4087 9.94791V21.1079H40.9887V9.94791H44.4087ZM46.2071 15.5079C46.2071 14.3612 46.4204 13.3546 46.8471 12.4879C47.2871 11.6212 47.8804 10.9546 48.6271 10.4879C49.3738 10.0212 50.2071 9.78791 51.1271 9.78791C51.9138 9.78791 52.6004 9.94791 53.1871 10.2679C53.7871 10.5879 54.2471 11.0079 54.5671 11.5279V9.94791H57.9871V21.1079H54.5671V19.5279C54.2338 20.0479 53.7671 20.4679 53.1671 20.7879C52.5804 21.1079 51.8938 21.2679 51.1071 21.2679C50.2004 21.2679 49.3738 21.0346 48.6271 20.5679C47.8804 20.0879 47.2871 19.4146 46.8471 18.5479C46.4204 17.6679 46.2071 16.6546 46.2071 15.5079ZM54.5671 15.5279C54.5671 14.6746 54.3271 14.0012 53.8471 13.5079C53.3804 13.0146 52.8071 12.7679 52.1271 12.7679C51.4471 12.7679 50.8671 13.0146 50.3871 13.5079C49.9204 13.9879 49.6871 14.6546 49.6871 15.5079C49.6871 16.3612 49.9204 17.0412 50.3871 17.5479C50.8671 18.0412 51.4471 18.2879 52.1271 18.2879C52.8071 18.2879 53.3804 18.0412 53.8471 17.5479C54.3271 17.0546 54.5671 16.3812 54.5671 15.5279ZM67.2613 9.82791C68.568 9.82791 69.608 10.2546 70.3813 11.1079C71.168 11.9479 71.5613 13.1079 71.5613 14.5879V21.1079H68.1613V15.0479C68.1613 14.3012 67.968 13.7212 67.5813 13.3079C67.1946 12.8946 66.6746 12.6879 66.0213 12.6879C65.368 12.6879 64.848 12.8946 64.4613 13.3079C64.0746 13.7212 63.8813 14.3012 63.8813 15.0479V21.1079H60.4613V9.94791H63.8813V11.4279C64.228 10.9346 64.6946 10.5479 65.2813 10.2679C65.868 9.97458 66.528 9.82791 67.2613 9.82791Z" fill="white"/>
</svg>
